<svg xmlns="http://www.w3.org/2000/svg" xmlns:xlink="http://www.w3.org/1999/xlink" viewBox="0 0 430 430" width="430" height="430" preserveAspectRatio="xMidYMid meet" style="width: 100%; height: 100%; transform: translate3d(0px, 0px, 0px); content-visibility: visible;"><defs><clipPath id="__lottie_element_20626"><rect width="430" height="430" x="0" y="0"/></clipPath><clipPath id="__lottie_element_20628"><path d="M0,0 L430,0 L430,430 L0,430z"/></clipPath></defs><g clip-path="url(#__lottie_element_20626)"><g clip-path="url(#__lottie_element_20628)" transform="matrix(1,0,0,1,0,0)" opacity="1" style="display: block;"><g transform="matrix(0.7708675861358643,0,0,0.7708675861358643,215,215)" opacity="1" style="display: none;"><g opacity="1" transform="matrix(1,0,0,1,0,0)"><path stroke-linecap="round" stroke-linejoin="round" fill-opacity="0" class="secondary" stroke="rgb(8,168,138)" stroke-opacity="1" stroke-width="18.9" d=" M-55.290000915527344,-120.9020004272461 C-54.797000885009766,-121.24800109863281 -54.277000427246094,-121.59600067138672 -53.73099899291992,-121.94599914550781 M-0.453000009059906,24.839000701904297 C-0.777999997138977,25.365999221801758 -1.1050000190734863,25.888999938964844 -1.4329999685287476,26.40999984741211 M-101.51799774169922,77.52400207519531 C-100.32499694824219,77.00800323486328 -98.77200317382812,76.3219985961914 -96.93099975585938,75.4800033569336 M-33.63800048828125,136.27699279785156 C-32.14400100708008,134.9759979248047 -30.677000045776367,133.67999267578125 -29.23699951171875,132.38999938964844 M-119.57599639892578,15.956999778747559 C-117.4000015258789,16.37299919128418 -115.19100189208984,16.64900016784668 -112.94999694824219,16.768999099731445 M56.36000061035156,124.6259994506836 C56.36000061035156,124.6259994506836 57.83599853515625,122.98400115966797 60.284000396728516,120.01100158691406 M-101.51799774169922,-72.61799621582031 C-101.51799774169922,-72.61799621582031 -100.85199737548828,-72.54000091552734 -99.70500183105469,-72.35600280761719 M-95.73100280761719,-45.99700164794922 C-95.81700134277344,-45.96699905395508 -95.90299987792969,-45.9379997253418 -95.98899841308594,-45.909000396728516 M-37.90399932861328,-98.85399627685547 C-37.0890007019043,-99.15699768066406 -36.2599983215332,-99.4520034790039 -35.41600036621094,-99.73999786376953"/></g></g><g transform="matrix(0.9999953508377075,0,0,0.9999953508377075,215,215)" opacity="1" style="display: block;"><g opacity="1" transform="matrix(1,0,0,1,0,0)"><path stroke-linecap="round" stroke-linejoin="round" fill-opacity="0" class="secondary" stroke="rgb(190,73,168)" stroke-opacity="1" stroke-width="18.9" d=" M-55.290000915527344,-120.9020004272461 C-38.5359992980957,-132.6699981689453 10.003000259399414,-147.11300659179688 55.30799865722656,-120.9020004272461 M-0.453000009059906,24.839000701904297 C-33.67900085449219,78.66000366210938 -82.76399993896484,102.22100067138672 -82.76399993896484,102.22100067138672 M-101.51799774169922,77.52400207519531 C-90.46299743652344,72.73999786376953 -48.42100143432617,53.39099884033203 -33.67900085449219,29.884000778198242 C-29.57200050354004,23.334999084472656 -25.15399932861328,15.642999649047852 -20.760000228881836,8.711999893188477 C-12.869999885559082,-3.7339999675750732 3.9749999046325684,-6.770999908447266 15.720000267028809,2.130000114440918 C15.720000267028809,2.130000114440918 15.720000267028809,2.130000114440918 15.720000267028809,2.130000114440918 C25.43899917602539,9.494999885559082 28.513999938964844,22.774999618530273 22.95400047302246,33.62799835205078 C12.03600025177002,54.9379997253418 -10.479000091552734,91.06300354003906 -60.125999450683594,124.6259994506836 M-33.63800048828125,136.27699279785156 C9.935999870300293,98.3270034790039 30.57699966430664,65.04399871826172 44.20399856567383,38.446998596191406 C54.268001556396484,18.804000854492188 48.70199966430664,-5.23199987411499 31.111000061035156,-18.562999725341797 C31.111000061035156,-18.562999725341797 31.111000061035156,-18.562999725341797 31.111000061035156,-18.562999725341797 C9.852999687194824,-34.67300033569336 -19.354999542236328,-28.31399917602539 -34.915000915527344,-6.651000022888184 C-56.810001373291016,23.832000732421875 -86.5770034790039,40.83100128173828 -112.96900177001953,50.31100082397461 M-119.57599639892578,15.956999778747559 C-99.13400268554688,19.867000579833984 -75.70999908447266,11.404000282287598 -51.31800079345703,-22.554000854492188 C-28.070999145507812,-54.917999267578125 15.564000129699707,-64.41899871826172 47.321998596191406,-40.35100173950195 C47.321998596191406,-40.35100173950195 47.321998596191406,-40.349998474121094 47.321998596191406,-40.349998474121094 C73.60199737548828,-20.43400001525879 85.74700164794922,16.89699935913086 70.71199798583984,46.24300003051758 C55.62699890136719,75.68599700927734 33.63999938964844,106.28700256347656 -1.2610000371932983,142.1060028076172 M56.36000061035156,124.6259994506836 C56.36000061035156,124.6259994506836 102.69999694824219,73.06300354003906 106.79299926757812,24.839000701904297 C110.88600158691406,-23.385000228881836 72.45999908447266,-66.4469985961914 40.400001525878906,-76.03099822998047 C-6.449999809265137,-90.03600311279297 -44.48500061035156,-51.00600051879883 -81.48100280761719,-100.50800323486328 M-101.51799774169922,-72.61799621582031 C-101.51799774169922,-72.61799621582031 -65.427001953125,-68.41400146484375 -67.27899932861328,-48.172000885009766 C-68.88899993896484,-30.57900047302246 -98.54000091552734,-12.64799976348877 -119.32599639892578,-13.689000129699707 M-95.73100280761719,-45.99700164794922 C-104.56500244140625,-42.95000076293945 -112.22699737548828,-43.02799987792969 -112.22699737548828,-43.02799987792969 M-37.90399932861328,-98.85399627685547 C-0.453000009059906,-112.76200103759766 67.55500030517578,-111.33399963378906 106.79299926757812,-53.83399963378906"/></g></g><g transform="matrix(1,0,0,1,215,215)" opacity="1" style="display: block;"><g opacity="1" transform="matrix(1,0,0,1,0,0)"><path stroke-linecap="round" stroke-linejoin="round" fill-opacity="0" class="primary" stroke="rgb(190,73,168)" stroke-opacity="1" stroke-width="18.9" d=" M187.1540069580078,0.8100000023841858 C187.1540069580078,103.9800033569336 103.51799774169922,187.61599731445312 0.3479999899864197,187.61599731445312 C-102.8219985961914,187.61599731445312 -186.45799255371094,103.9800033569336 -186.45799255371094,0.8100000023841858 C-186.45799255371094,-102.36000061035156 -102.8219985961914,-185.9949951171875 0.3479999899864197,-185.9949951171875 C103.51799774169922,-185.9949951171875 187.1540069580078,-102.36000061035156 187.1540069580078,0.8100000023841858z"/></g></g></g></g></svg>