<svg xmlns="http://www.w3.org/2000/svg" xmlns:xlink="http://www.w3.org/1999/xlink" viewBox="0 0 430 430" width="430" height="430" preserveAspectRatio="xMidYMid meet" style="width: 100%; height: 100%; transform: translate3d(0px, 0px, 0px); content-visibility: visible;"><defs><clipPath id="__lottie_element_4619"><rect width="430" height="430" x="0" y="0"/></clipPath><clipPath id="__lottie_element_4621"><path d="M0,0 L430,0 L430,430 L0,430z"/></clipPath></defs><g clip-path="url(#__lottie_element_4619)"><g clip-path="url(#__lottie_element_4621)" transform="matrix(1,0,0,1,0,0)" opacity="1" style="display: block;"><g transform="matrix(1,0,0,1,215,102.5)" opacity="1" style="display: none;"><g opacity="1" transform="matrix(0,1,-1,0,0,-17.5)"><path stroke-linecap="round" stroke-linejoin="round" fill-opacity="0" class="secondary" stroke="rgb(190,73,168)" stroke-opacity="1" stroke-width="18" d=" M26.875,-19.108999252319336 C18.25,-16.5 16.125,-8.375 16.125,-8.375 C16.125,-8.375 16.125,7.625 16.125,7.625 C16.125,7.625 16.25,16 6.625,19.141000747680664 M34.35900115966797,-0.3100000023841858 C34.35900115966797,-0.3100000023841858 51.625,0.032999999821186066 51.625,0.032999999821186066 M-20.375,0.032999999821186066 C-20.375,0.032999999821186066 -1.8910000324249268,-0.20100000500679016 -1.8910000324249268,-0.20100000500679016"/></g><g opacity="1" transform="matrix(1,0,0,1,0,0)"><path stroke-linecap="round" stroke-linejoin="round" fill-opacity="0" class="secondary" stroke="rgb(190,73,168)" stroke-opacity="1" stroke-width="18" d=" M-83.20099639892578,-19.774999618530273 C-83.20099639892578,-50.56399917602539 -58.24100112915039,-75.52400207519531 -27.45199966430664,-75.52400207519531 C-27.45199966430664,-75.52400207519531 25.03499984741211,-75.38800048828125 25.03499984741211,-75.38800048828125 C56.9739990234375,-75.38800048828125 82.86499786376953,-49.49700164794922 82.86499786376953,-17.558000564575195 C82.86499786376953,-17.558000564575195 82.72799682617188,5.539999961853027 82.72799682617188,5.539999961853027 C82.72799682617188,36.448001861572266 57.672000885009766,61.50400161743164 26.763999938964844,61.50400161743164 C26.763999938964844,61.50400161743164 7.6539998054504395,61.683998107910156 7.6539998054504395,61.683998107910156 C7.6539998054504395,61.683998107910156 0,61.91600036621094 0,61.91600036621094 C0,61.91600036621094 -7.6539998054504395,61.683998107910156 -7.6539998054504395,61.683998107910156 C-7.6539998054504395,61.683998107910156 -26.243999481201172,61.689998626708984 -26.243999481201172,61.689998626708984 C-57.8120002746582,61.689998626708984 -83.4020004272461,36.099998474121094 -83.4020004272461,4.5320000648498535 C-83.4020004272461,4.5320000648498535 -83.20099639892578,-19.774999618530273 -83.20099639892578,-19.774999618530273z"/></g></g><g transform="matrix(1,0,0,1,215,102.5)" opacity="1" style="display: block;"><g opacity="1" transform="matrix(1,0,0,1,0,-17.5)"><path stroke-linecap="round" stroke-linejoin="round" fill-opacity="0" class="secondary" stroke="rgb(190,73,168)" stroke-opacity="1" stroke-width="18" d=" M0,-25 C0,-25 0,25 0,25 M-25,0 C-25,0 25,0 25,0"/></g><g opacity="1" transform="matrix(1,0,0,1,0,0)"><path stroke-linecap="round" stroke-linejoin="round" fill-opacity="0" class="secondary" stroke="rgb(190,73,168)" stroke-opacity="1" stroke-width="18" d=" M-100,-52.5 C-100,-63.54600143432617 -91.0459976196289,-72.5 -80,-72.5 C-80,-72.5 80,-72.5 80,-72.5 C91.0459976196289,-72.5 100,-63.54600143432617 100,-52.5 C100,-52.5 100,17.5 100,17.5 C100,28.54599952697754 91.0459976196289,37.5 80,37.5 C80,37.5 23.33300018310547,37.5 23.33300018310547,37.5 C23.33300018310547,37.5 0,72.5 0,72.5 C0,72.5 -23.33300018310547,37.5 -23.33300018310547,37.5 C-23.33300018310547,37.5 -80,37.5 -80,37.5 C-91.0459976196289,37.5 -100,28.54599952697754 -100,17.5 C-100,17.5 -100,-52.5 -100,-52.5z"/></g></g><g transform="matrix(1,0,0,1,115,307.5)" opacity="1" style="display: block;"><g opacity="1" transform="matrix(1,0,0,1,0,0)"><path stroke-linecap="butt" stroke-linejoin="round" fill-opacity="0" class="primary" stroke="rgb(190,73,168)" stroke-opacity="1" stroke-width="18" d=" M30,-42.5 C30,-25.930999755859375 16.569000244140625,-12.5 0,-12.5 C-16.569000244140625,-12.5 -30,-25.930999755859375 -30,-42.5 C-30,-59.069000244140625 -16.569000244140625,-72.5 0,-72.5 C16.569000244140625,-72.5 30,-59.069000244140625 30,-42.5z M12.217000007629395,72.5 C-23.797000885009766,72.5 -65,72.5 -65,72.5 C-65,72.5 -65,57.5 -65,57.5 C-65,32.64699935913086 -44.85300064086914,12.5 -20,12.5 C-20,12.5 -20,12.5 -20,12.5 C-20,12.5 20,12.5 20,12.5 C27.784000396728516,12.5 35.10599899291992,14.47599983215332 41.49300003051758,17.95400047302246"/></g></g><g transform="matrix(1,0,0,1,315,307.5)" opacity="1" style="display: block;"><g opacity="1" transform="matrix(1,0,0,1,0,0)"><path stroke-linecap="butt" stroke-linejoin="round" fill-opacity="0" class="primary" stroke="rgb(190,73,168)" stroke-opacity="1" stroke-width="18" d=" M30,-42.5 C30,-25.930999755859375 16.569000244140625,-12.5 0,-12.5 C-16.569000244140625,-12.5 -30,-25.930999755859375 -30,-42.5 C-30,-59.069000244140625 -16.569000244140625,-72.5 0,-72.5 C16.569000244140625,-72.5 30,-59.069000244140625 30,-42.5z M-10.145000457763672,72.5 C25.35700035095215,72.5 65,72.5 65,72.5 C65,72.5 65,57.5 65,57.5 C65,32.64699935913086 44.85300064086914,12.5 20,12.5 C20,12.5 -20,12.5 -20,12.5 C-20,12.5 -20,12.5 -20,12.5 C-28.52400016784668,12.5 -36.49399948120117,14.869999885559082 -43.28799819946289,18.98699951171875"/></g></g><g transform="matrix(1,0,0,1,215,302.5)" opacity="1" style="display: block;"><g opacity="1" transform="matrix(1,0,0,1,0,0)"><path stroke-linecap="butt" stroke-linejoin="round" fill-opacity="0" class="primary" stroke="rgb(190,73,168)" stroke-opacity="1" stroke-width="18" d=" M-35,17.5 C-65.3759994506836,17.5 -90,42.124000549316406 -90,72.5 C-90,72.5 -90,97.5 -90,97.5 C-90,97.5 90,97.5 90,97.5 C90,97.5 90,72.5 90,72.5 C90,42.124000549316406 65.3759994506836,17.5 35,17.5 C35,17.5 -35,17.5 -35,17.5z M45,-52.5 C45,-27.64699935913086 24.85300064086914,-7.5 0,-7.5 C-24.85300064086914,-7.5 -45,-27.64699935913086 -45,-52.5 C-45,-77.35299682617188 -24.85300064086914,-97.5 0,-97.5 C24.85300064086914,-97.5 45,-77.35299682617188 45,-52.5z"/></g></g><g transform="matrix(0.9999647736549377,0,0,0.9999647736549377,215,101)" opacity="1" style="display: none;"><g opacity="1" transform="matrix(1,0,0,1,0,0)"><path stroke-linecap="round" stroke-linejoin="round" fill-opacity="0" class="secondary" stroke="rgb(190,73,168)" stroke-opacity="1" stroke-width="18" d=" M-0.14801275730133057,-36.000999450683594 C-0.14801275730133057,-36.000999450683594 -0.14801275730133057,-17.942626953125 -0.14801275730133057,-17.942626953125 M-0.14801275730133057,18.751501083374023 C-0.14801275730133057,18.751501083374023 -0.14801275730133057,35.001251220703125 -0.14801275730133057,35.001251220703125 M13.960509300231934,64.00274658203125 C57.49597930908203,64.00274658203125 83.49787139892578,44.99910354614258 83.49787139892578,-5.534615993499756 C83.49787139892578,-56.74616622924805 55.74641799926758,-75.07298278808594 13.960509300231934,-75.07298278808594 C13.747505187988281,-75.07298278808594 -14.458499908447266,-75.06698608398438 -14.671504020690918,-75.06698608398438 C-69.74301147460938,-75.06688690185547 -83.57085418701172,-43.724365234375 -83.57085418701172,-5.53261661529541 C-83.57085418701172,32.40913009643555 -67.74362182617188,63.99155044555664 -15.41851806640625,63.99174880981445 C-14.95750904083252,63.99175262451172 13.4975004196167,64.00274658203125 13.960509300231934,64.00274658203125z M-18.929000854492188,-8.63599967956543 C-18.922000885009766,-8.619000434875488 -18.915000915527344,-8.60200023651123 -18.908000946044922,-8.585000038146973 C-18.187000274658203,-6.8460001945495605 -17.131000518798828,-5.264999866485596 -15.798999786376953,-3.934000015258789 C-14.467000007629395,-2.6029999256134033 -12.88700008392334,-1.5490000247955322 -11.147000312805176,-0.8289999961853027 C-9.406999588012695,-0.10899999737739563 -7.543000221252441,0.25999999046325684 -5.659999847412109,0.2590000033378601 C-5.659999847412109,0.2590000033378601 5.301000118255615,0.2590000033378601 5.301000118255615,0.2590000033378601 C7.181000232696533,0.2590000033378601 9.043999671936035,0.6290000081062317 10.781000137329102,1.350000023841858 C12.517999649047852,2.071000099182129 14.095999717712402,3.127000093460083 15.423999786376953,4.458000183105469 C16.75200080871582,5.789000034332275 17.804000854492188,7.36899995803833 18.520999908447266,9.107000350952148 C18.854000091552734,9.913999557495117 19.111000061035156,10.746999740600586 19.291000366210938,11.597000122070312"/></g></g></g></g></svg>