<svg xmlns="http://www.w3.org/2000/svg" xmlns:xlink="http://www.w3.org/1999/xlink" viewBox="0 0 430 430" width="430" height="430" preserveAspectRatio="xMidYMid meet" style="width: 100%; height: 100%; transform: translate3d(0px, 0px, 0px); content-visibility: visible;"><defs><clipPath id="__lottie_element_565"><rect width="430" height="430" x="0" y="0"/></clipPath><clipPath id="__lottie_element_567"><path d="M0,0 L430,0 L430,430 L0,430z"/></clipPath><clipPath id="__lottie_element_572"><path d="M0,0 L430,0 L430,430 L0,430z"/></clipPath></defs><g clip-path="url(#__lottie_element_565)"><g clip-path="url(#__lottie_element_567)" transform="matrix(1,0,0,1,0,0)" opacity="1" style="display: block;"><g clip-path="url(#__lottie_element_572)" transform="matrix(1,0,0,1,0,0)" opacity="1" style="display: block;"><g transform="matrix(1,0,0,1,294.5,272.5)" opacity="1" style="display: none;"><g opacity="1" transform="matrix(1,0,0,1,0,0)"><path stroke-linecap="round" stroke-linejoin="round" fill-opacity="0" class="secondary" stroke="rgb(190,73,168)" stroke-opacity="1" stroke-width="18" d=" M-205.0989227294922,33.5 C-205.0989227294922,33.5 -207.06561279296875,33.5 -207.06561279296875,33.5 M-205.0989227294922,33.5 C-205.0989227294922,33.5 -205.0989227294922,0 -205.0989227294922,0 C-205.0989227294922,0 -205.0989227294922,-33.5 -205.0989227294922,-33.5 C-205.0989227294922,-33.5 -207.06561279296875,-33.5 -207.06561279296875,-33.5 C-207.06561279296875,-33.5 -207.06561279296875,33.5 -207.06561279296875,33.5"/></g></g><g transform="matrix(1,0,0,1,137.5,272.5)" opacity="1" style="display: none;"><g opacity="1" transform="matrix(1,0,0,1,0,0)"><path stroke-linecap="round" stroke-linejoin="round" fill-opacity="0" class="secondary" stroke="rgb(190,73,168)" stroke-opacity="1" stroke-width="18" d=" M-53.09102249145508,33.5 C-53.09102249145508,33.5 -55.05772018432617,33.5 -55.05772018432617,33.5 M-53.09102249145508,33.5 C-53.09102249145508,33.5 -53.09102249145508,-33.5 -53.09102249145508,-33.5 C-53.09102249145508,-33.5 -55.05772018432617,-33.5 -55.05772018432617,-33.5 C-55.05772018432617,-33.5 -55.05772018432617,33.5 -55.05772018432617,33.5"/></g></g><g transform="matrix(1,0,0,1,215.5,273.5)" opacity="1" style="display: none;"><g opacity="1" transform="matrix(1,0,0,1,0,0)"><path stroke-linecap="round" stroke-linejoin="round" fill-opacity="0" class="secondary" stroke="rgb(190,73,168)" stroke-opacity="1" stroke-width="18" d=" M179.23582458496094,69.5 C179.23582458496094,69.5 179.23582458496094,2.5 179.23582458496094,2.5 M179.23582458496094,69.5 C179.23582458496094,69.5 179.23582458496094,2.5 179.23582458496094,2.5 M179.23582458496094,69.5 C179.23582458496094,69.5 179.23582458496094,2.5 179.23582458496094,2.5 M179.23582458496094,69.5 C179.23582458496094,69.5 179.23582458496094,2.5 179.23582458496094,2.5 M179.23582458496094,69.5 C179.23582458496094,69.5 179.23582458496094,2.5 179.23582458496094,2.5 M179.23582458496094,69.5 C179.23582458496094,69.5 179.23582458496094,2.5 179.23582458496094,2.5 M179.3512420654297,69.5 C179.3512420654297,69.5 159.0360870361328,69.5 159.0360870361328,69.5 M159.49778747558594,2.5 C159.49778747558594,2.5 159.49778747558594,-59.72975158691406 159.49778747558594,-59.72975158691406 C159.49778747558594,-59.72975158691406 159.49778747558594,-59.72975158691406 159.49778747558594,-59.72975158691406 C159.49778747558594,-59.72975158691406 159.49778747558594,2.5 159.49778747558594,2.5 M179.3512420654297,69.5 C179.3512420654297,69.5 179.3512420654297,2.5 179.3512420654297,2.5 C179.3512420654297,2.5 159.0360870361328,2.5 159.0360870361328,2.5 C159.0360870361328,2.5 159.0360870361328,69.5 159.0360870361328,69.5"/></g></g><g transform="matrix(5.275599956512451,0,0,5.275599956512451,583.4199829101562,190.02000427246094)" opacity="1" style="display: none;"><g opacity="1" transform="matrix(1,0,0,1,0,0)"><path stroke-linecap="round" stroke-linejoin="round" fill-opacity="0" class="primary" stroke="rgb(190,73,168)" stroke-opacity="1" stroke-width="3.75" d=" M-95.00838470458984,35.91706466674805 C-95.00838470458984,35.91706466674805 -95.00838470458984,-0.33161354064941406 -95.00838470458984,-0.33161354064941406"/></g></g><g transform="matrix(5.275599956512451,0,0,5.275599956512451,325.0899963378906,190.02000427246094)" opacity="1" style="display: none;"><g opacity="1" transform="matrix(1,0,0,1,0,0)"><path stroke-linecap="round" stroke-linejoin="round" fill-opacity="0" class="primary" stroke="rgb(190,73,168)" stroke-opacity="1" stroke-width="3.6750000000000003" d=" M-19.35801124572754,-25.298521041870117 C-19.35801124572754,-25.298521041870117 10.967214584350586,3.2768964767456055 10.967214584350586,3.2768964767456055"/></g><g opacity="1" transform="matrix(1,0,0,1,0,0)"><path stroke-linecap="round" stroke-linejoin="round" fill-opacity="0" class="primary" stroke="rgb(190,73,168)" stroke-opacity="1" stroke-width="3.6750000000000003" d=" M-44.2653923034668,35.911659240722656 C-44.2653923034668,35.911659240722656 5.326582908630371,35.91154098510742 5.326582908630371,35.91154098510742 C5.326582908630371,35.91154098510742 5.3191680908203125,-1.7847529649734497 5.3191680908203125,-1.7847529649734497 C5.3191680908203125,-1.7847529649734497 5.3191680908203125,-1.9095181226730347 5.3191680908203125,-1.9095181226730347"/></g></g><g transform="matrix(1,0,0,1,215.5,273.5)" opacity="1" style="display: none;"><g opacity="1" transform="matrix(1,0,0,1,0,0)"><path stroke-linecap="round" stroke-linejoin="round" fill-opacity="0" class="secondary" stroke="rgb(190,73,168)" stroke-opacity="1" stroke-width="18" d=" M-47.66256332397461,69.5 C-47.66256332397461,69.5 -47.66256332397461,2.5 -47.66256332397461,2.5 M-26.938570022583008,69.5 C-26.938570022583008,69.5 -26.938570022583008,2.5 -26.938570022583008,2.5 M-5.213731288909912,69.5 C-5.213731288909912,69.5 -5.213731288909912,2.5 -5.213731288909912,2.5 M17.4988956451416,69.5 C17.4988956451416,69.5 17.4988956451416,2.5 17.4988956451416,2.5 M39.223968505859375,69.5 C39.223968505859375,69.5 39.223968505859375,2.5 39.223968505859375,2.5 M61.00017547607422,69.5 C61.00017547607422,69.5 61.00017547607422,2.5 61.00017547607422,2.5 M81.69757843017578,69.5 C81.69757843017578,69.5 -69.39838409423828,69.5 -69.39838409423828,69.5 M45.15256118774414,2.5 C45.15256118774414,2.5 45.15256118774414,-69.20646667480469 45.15256118774414,-69.20646667480469 C45.15256118774414,-69.20646667480469 -36.38172912597656,-69.20646667480469 -36.38172912597656,-69.20646667480469 C-36.38172912597656,-69.20646667480469 -36.38172912597656,2.5 -36.38172912597656,2.5 M81.69757843017578,69.5 C81.69757843017578,69.5 81.69757843017578,2.5 81.69757843017578,2.5 C81.69757843017578,2.5 -69.39838409423828,2.5 -69.39838409423828,2.5 C-69.39838409423828,2.5 -69.39838409423828,69.5 -69.39838409423828,69.5"/></g></g><g transform="matrix(5.275599956512451,0,0,5.275599956512451,583.4199829101562,190.02000427246094)" opacity="1" style="display: none;"><g opacity="1" transform="matrix(1,0,0,1,0,0)"><path stroke-linecap="round" stroke-linejoin="round" fill-opacity="0" class="primary" stroke="rgb(190,73,168)" stroke-opacity="1" stroke-width="3.75" d=" M-94.99430847167969,35.937477111816406 C-94.99430847167969,35.937477111816406 -93.30332946777344,35.84035110473633 -93.30332946777344,35.84035110473633 C-93.30332946777344,35.84035110473633 -93.30332946777344,-1.36947500705719 -93.30332946777344,-1.36947500705719"/></g></g><g transform="matrix(5.275599956512451,0,0,5.275599956512451,583.4199829101562,190.02000427246094)" opacity="1" style="display: none;"><g opacity="1" transform="matrix(1,0,0,1,0,0)"><path stroke-linecap="round" stroke-linejoin="round" fill-opacity="0" class="primary" stroke="rgb(190,73,168)" stroke-opacity="1" stroke-width="3.75" d=" M-78.8528823852539,-17.682613372802734 C-78.8528823852539,-17.682613372802734 -70.44097137451172,-25.240924835205078 -70.44097137451172,-25.240924835205078 M-101.1104736328125,3.2313637733459473 C-101.1104736328125,3.2313637733459473 -88.21131134033203,-8.938813209533691 -88.21131134033203,-8.938813209533691"/></g></g><g transform="matrix(5.275599956512451,0,0,5.275599956512451,325.0899963378906,190.02000427246094)" opacity="1" style="display: none;"><g opacity="0" transform="matrix(1,0,0,1,0,0)"><path stroke-linecap="round" stroke-linejoin="round" fill-opacity="0" class="secondary" stroke="rgb(190,73,168)" stroke-opacity="1" stroke-width="3.6750000000000003" d=" M-27.183000564575195,-14.454999923706055 C-27.183000564575195,-14.454999923706055 -27.183000564575195,-18.768999099731445 -27.183000564575195,-18.768999099731445 C-27.183000564575195,-18.768999099731445 -27.25200080871582,-18.768999099731445 -27.25200080871582,-18.768999099731445 C-27.25200080871582,-18.768999099731445 -27.25200080871582,-8.24899959564209 -27.25200080871582,-8.24899959564209"/></g><g opacity="1" transform="matrix(1,0,0,1,0,0)"><path stroke-linecap="round" stroke-linejoin="round" fill-opacity="0" class="secondary" stroke="rgb(190,73,168)" stroke-opacity="1" stroke-width="3.6750000000000003" d="M0 0"/></g><g opacity="0" transform="matrix(1,0,0,1,0,0)"><path stroke-linecap="round" stroke-linejoin="round" fill-opacity="0" class="secondary" stroke="rgb(190,73,168)" stroke-opacity="1" stroke-width="3.6750000000000003" d=" M-38.78300094604492,-6.558000087738037 C-38.78300094604492,-6.558000087738037 -38.80500030517578,-20.690000534057617 -38.80500030517578,-20.690000534057617 C-38.80500030517578,-20.690000534057617 -38.68600082397461,-20.634000778198242 -38.68600082397461,-20.634000778198242 C-38.68600082397461,-20.634000778198242 -38.65599822998047,-6.461999893188477 -38.65599822998047,-6.461999893188477"/></g></g><g transform="matrix(5.275599956512451,0,0,5.275599956512451,583.4199829101562,190.02000427246094)" opacity="1" style="display: none;"><g opacity="1" transform="matrix(1,0,0,1,0,0)"><path stroke-linecap="round" stroke-linejoin="round" fill-opacity="0" class="primary" stroke="rgb(190,73,168)" stroke-opacity="1" stroke-width="3.75" d=" M-80.81099700927734,-13.656000137329102 C-89.24099731445312,-5.803999900817871 -98.83100128173828,3.13100004196167 -98.83100128173828,3.13100004196167 C-98.83132934570312,3.1306419372558594 -100.78288269042969,3.1411523818969727 -100.78288269042969,3.1411523818969727 M-70.20738983154297,-25.357940673828125 C-70.20738983154297,-25.357940673828125 -68.308349609375,-25.303298950195312 -68.308349609375,-25.303298950195312 C-68.30799865722656,-25.30299949645996 -74.2030029296875,-19.812000274658203 -80.81099700927734,-13.656000137329102"/></g></g><g transform="matrix(5.275599956512451,0,0,5.275599956512451,325.0899963378906,190.02000427246094)" opacity="1" style="display: none;"><g opacity="1" transform="matrix(1,0,0,1,0,0)"><path stroke-linecap="round" stroke-linejoin="round" fill-opacity="0" class="secondary" stroke="rgb(190,73,168)" stroke-opacity="1" stroke-width="3.6750000000000003" d=" M-26.37961769104004,-14.459515571594238 C-26.37961769104004,-14.459515571594238 -26.37961769104004,-18.882932662963867 -26.37961769104004,-18.882932662963867 C-26.37961769104004,-18.882932662963867 -25.93810272216797,-18.882932662963867 -25.93810272216797,-18.882932662963867 C-25.93810272216797,-18.882932662963867 -25.93810272216797,-8.239968299865723 -25.93810272216797,-8.239968299865723"/></g><g opacity="0" transform="matrix(1,0,0,1,0,0)"><path stroke-linecap="round" stroke-linejoin="round" fill-opacity="0" class="secondary" stroke="rgb(190,73,168)" stroke-opacity="1" stroke-width="3.6750000000000003" d=" M-14.814000129699707,-14.5 C-14.814000129699707,-14.5 -14.814000129699707,-18.815000534057617 -14.814000129699707,-18.815000534057617 C-14.814000129699707,-18.815000534057617 -14.883000373840332,-18.815000534057617 -14.883000373840332,-18.815000534057617 C-14.883000373840332,-18.815000534057617 -14.883000373840332,-8.295000076293945 -14.883000373840332,-8.295000076293945"/></g><g opacity="1" transform="matrix(1,0,0,1,0,0)"><path stroke-linecap="round" stroke-linejoin="round" fill-opacity="0" class="secondary" stroke="rgb(190,73,168)" stroke-opacity="1" stroke-width="3.6750000000000003" d=" M-26.040142059326172,-8.232999801635742 C-26.040142059326172,-8.232999801635742 -26.00592041015625,-18.883262634277344 -26.00592041015625,-18.883262634277344 C-26.00592041015625,-18.883262634277344 -13.822652816772461,-18.834632873535156 -13.822652816772461,-18.834632873535156 C-13.822652816772461,-18.834632873535156 -13.844876289367676,-8.145370483398438 -13.844876289367676,-8.145370483398438"/></g></g><g transform="matrix(5.275599956512451,0,0,5.275599956512451,325.0899963378906,190.02000427246094)" opacity="1" style="display: none;"><g opacity="1" transform="matrix(1,0,0,1,0,0)"><path stroke-linecap="round" stroke-linejoin="round" fill-opacity="0" class="secondary" stroke="rgb(190,73,168)" stroke-opacity="1" stroke-width="3.6750000000000003" d="M0 0"/></g></g><g transform="matrix(5.275599956512451,0,0,5.275599956512451,325.0899963378906,190.02000427246094)" opacity="1" style="display: none;"><g opacity="1" transform="matrix(1,0,0,1,0,0)"><path stroke-linecap="round" stroke-linejoin="round" fill-opacity="0" class="secondary" stroke="rgb(190,73,168)" stroke-opacity="1" stroke-width="3.6750000000000003" d=" M-50.044151306152344,35.69847106933594 C-50.044151306152344,35.69847106933594 -50.044151306152344,9.715999603271484 -50.044151306152344,9.715999603271484 C-50.044151306152344,9.715999603271484 -49.24900436401367,9.715999603271484 -49.24900436401367,9.715999603271484 C-49.24900436401367,9.715999603271484 -49.24900436401367,35.69847106933594 -49.24900436401367,35.69847106933594"/></g><g opacity="1" transform="matrix(1,0,0,1,0,0)"><path stroke-linecap="round" stroke-linejoin="round" fill-opacity="0" class="primary" stroke="rgb(190,73,168)" stroke-opacity="1" stroke-width="3.6750000000000003" d=" M-56.36408615112305,3.2571468353271484 C-56.36408615112305,3.2571468353271484 -45.46953201293945,-25.5430850982666 -45.46953201293945,-25.5430850982666 C-45.46953201293945,-25.5430850982666 -53.2515754699707,3.2571468353271484 -53.2515754699707,3.2571468353271484"/></g><g opacity="1" transform="matrix(1,0,0,1,0,0)"><path stroke-linecap="round" stroke-linejoin="round" fill-opacity="0" class="primary" stroke="rgb(190,73,168)" stroke-opacity="1" stroke-width="3.6750000000000003" d=" M-50.88859558105469,3.5399999618530273 C-50.88859558105469,3.5399999618530273 -50.88859558105469,3.634999990463257 -50.88859558105469,3.634999990463257 C-50.88859558105469,3.634999990463257 -50.91946792602539,35.698028564453125 -50.91946792602539,35.698028564453125 C-50.91946792602539,35.698028564453125 -48.3902702331543,35.698028564453125 -48.3902702331543,35.698028564453125 C-48.3902702331543,35.698028564453125 -48.400115966796875,3.620209217071533 -48.400115966796875,3.620209217071533"/></g></g><g transform="matrix(5.275599956512451,0,0,5.275599956512451,325.0899963378906,190.02000427246094)" opacity="1" style="display: none;"><g opacity="1" transform="matrix(1,0,0,1,0,0)"><path stroke-linecap="round" stroke-linejoin="round" fill-opacity="0" class="primary" stroke="rgb(190,73,168)" stroke-opacity="1" stroke-width="3.6750000000000003" d=" M-50.57056427001953,3.538828134536743 C-50.57056427001953,3.538828134536743 -50.57056427001953,3.6338281631469727 -50.57056427001953,3.6338281631469727 C-50.57056427001953,3.6338281631469727 -50.57250213623047,35.680999755859375 -50.57250213623047,35.680999755859375"/></g></g><g transform="matrix(5.275599956512451,0,0,5.275599956512451,325.0899963378906,190.02000427246094)" opacity="1" style="display: none;"><g opacity="1" transform="matrix(1,0,0,1,0,0)"><path stroke-linecap="round" stroke-linejoin="round" fill-opacity="0" class="secondary" stroke="rgb(190,73,168)" stroke-opacity="1" stroke-width="3.6750000000000003" d=" M-12.178340911865234,35.8060302734375 C-12.178340911865234,35.8060302734375 -12.178340911865234,9.60422134399414 -12.178340911865234,9.60422134399414 C-12.178340911865234,9.60422134399414 -0.1215592622756958,9.60422134399414 -0.1215592622756958,9.60422134399414 C-0.1215592622756958,9.60422134399414 -0.1215592622756958,35.8060302734375 -0.1215592622756958,35.8060302734375"/></g></g><g transform="matrix(1,0,0,1,215.5,273.5)" opacity="1" style="display: none;"><g opacity="1" transform="matrix(1,0,0,1,0,0)"><path stroke-linecap="round" stroke-linejoin="round" fill-opacity="0" class="secondary" stroke="rgb(190,73,168)" stroke-opacity="1" stroke-width="18" d=" M-167.43800354003906,69.5 C-167.43800354003906,69.5 -167.43800354003906,2.5 -167.43800354003906,2.5 M-167.43800354003906,69.5 C-167.43800354003906,69.5 -167.43800354003906,2.5 -167.43800354003906,2.5 M-167.43800354003906,69.5 C-167.43800354003906,69.5 -167.43800354003906,2.5 -167.43800354003906,2.5 M-167.43800354003906,69.5 C-167.43800354003906,69.5 -167.43800354003906,2.5 -167.43800354003906,2.5 M-167.43800354003906,69.5 C-167.43800354003906,69.5 -167.43800354003906,2.5 -167.43800354003906,2.5 M-167.43800354003906,69.5 C-167.43800354003906,69.5 -167.43800354003906,2.5 -167.43800354003906,2.5 M-167.6820068359375,69.5 C-167.6820068359375,69.5 -167.43800354003906,69.5 -167.43800354003906,69.5 M-167.68800354003906,2.5 C-167.68800354003906,2.5 -167.68800354003906,-62.75 -167.68800354003906,-62.75 C-167.68800354003906,-62.75 -167.68499755859375,-62.75 -167.68499755859375,-62.75 C-167.68499755859375,-62.75 -167.68499755859375,2.5 -167.68499755859375,2.5 M-167.6820068359375,69.5 C-167.6820068359375,69.5 -167.6820068359375,2.5 -167.6820068359375,2.5 C-167.6820068359375,2.5 -167.43800354003906,2.5 -167.43800354003906,2.5 C-167.43800354003906,2.5 -167.43800354003906,69.5 -167.43800354003906,69.5"/></g></g><g transform="matrix(1,0,0,1,294.5,272.5)" opacity="1" style="display: none;"><g opacity="1" transform="matrix(1,0,0,1,0,0)"><path stroke-linecap="round" stroke-linejoin="round" fill-opacity="0" class="secondary" stroke="rgb(190,73,168)" stroke-opacity="1" stroke-width="18" d=" M-135.98121643066406,33.5 C-135.98121643066406,33.5 -163.1157684326172,33.5 -163.1157684326172,33.5 M-135.98121643066406,33.5 C-135.98121643066406,33.5 -135.98121643066406,0 -135.98121643066406,0 C-135.98121643066406,0 -135.98121643066406,-33.5 -135.98121643066406,-33.5 C-135.98121643066406,-33.5 -163.1157684326172,-33.5 -163.1157684326172,-33.5 C-163.1157684326172,-33.5 -163.1157684326172,33.5 -163.1157684326172,33.5"/></g></g><g transform="matrix(1,0,0,1,137.5,272.5)" opacity="1" style="display: none;"><g opacity="1" transform="matrix(1,0,0,1,0,0)"><path stroke-linecap="round" stroke-linejoin="round" fill-opacity="0" class="secondary" stroke="rgb(190,73,168)" stroke-opacity="1" stroke-width="18" d=" M-35.0603141784668,33.5 C-35.0603141784668,33.5 -62.19487380981445,33.5 -62.19487380981445,33.5 M-35.0603141784668,33.5 C-35.0603141784668,33.5 -35.0603141784668,-33.5 -35.0603141784668,-33.5 C-35.0603141784668,-33.5 -62.19487380981445,-33.5 -62.19487380981445,-33.5 C-62.19487380981445,-33.5 -62.19487380981445,33.5 -62.19487380981445,33.5"/></g></g><g transform="matrix(5.275599956512451,0,0,5.275599956512451,583.4199829101562,190.02000427246094)" opacity="1" style="display: none;"><g opacity="1" transform="matrix(1,0,0,1,0,0)"><path stroke-linecap="round" stroke-linejoin="round" fill-opacity="0" class="primary" stroke="rgb(190,73,168)" stroke-opacity="1" stroke-width="3.75" d=" M-100.1343994140625,35.88026428222656 C-100.1343994140625,35.88026428222656 -100.1343994140625,3.2465007305145264 -100.1343994140625,3.2465007305145264"/></g></g><g transform="matrix(5.275599956512451,0,0,5.275599956512451,325.0899963378906,190.02000427246094)" opacity="1" style="display: none;"><g opacity="1" transform="matrix(1,0,0,1,0,0)"><path stroke-linecap="round" stroke-linejoin="round" fill-opacity="0" class="primary" stroke="rgb(190,73,168)" stroke-opacity="1" stroke-width="3.6750000000000003" d=" M-7.1114044189453125,-25.356369018554688 C-7.1114044189453125,-25.356369018554688 16.805408477783203,3.1859915256500244 16.805408477783203,3.1859915256500244"/></g><g opacity="1" transform="matrix(1,0,0,1,0,0)"><path stroke-linecap="round" stroke-linejoin="round" fill-opacity="0" class="primary" stroke="rgb(190,73,168)" stroke-opacity="1" stroke-width="3.6750000000000003" d=" M-25.753114700317383,35.843292236328125 C-25.753114700317383,35.843292236328125 12.58995246887207,35.841670989990234 12.58995246887207,35.841670989990234 C12.58995246887207,35.841670989990234 12.602822303771973,-0.7194386720657349 12.602822303771973,-0.7194386720657349 C12.602822303771973,-0.7194386720657349 12.602822303771973,-0.8411986827850342 12.602822303771973,-0.8411986827850342"/></g></g><g transform="matrix(5.275599956512451,0,0,5.275599956512451,583.4199829101562,190.02000427246094)" opacity="1" style="display: none;"><g opacity="1" transform="matrix(1,0,0,1,0,0)"><path stroke-linecap="round" stroke-linejoin="round" fill-opacity="0" class="primary" stroke="rgb(190,73,168)" stroke-opacity="1" stroke-width="3.75" d=" M-98.69661712646484,35.89240264892578 C-98.69661712646484,35.89240264892578 -74.7903060913086,35.8448600769043 -74.7903060913086,35.8448600769043 C-74.7903060913086,35.8448600769043 -74.7903060913086,-1.721073865890503 -74.7903060913086,-1.721073865890503"/></g></g><g transform="matrix(5.275599956512451,0,0,5.275599956512451,583.4199829101562,190.02000427246094)" opacity="1" style="display: none;"><g opacity="1" transform="matrix(1,0,0,1,0,0)"><path stroke-linecap="round" stroke-linejoin="round" fill-opacity="0" class="primary" stroke="rgb(190,73,168)" stroke-opacity="1" stroke-width="3.75" d=" M-82.88147735595703,-25.357189178466797 C-82.88147735595703,-25.357189178466797 -56.16842269897461,-25.268739700317383 -56.16842269897461,-25.268739700317383 C-56.16842269897461,-25.268739700317383 -79.17936706542969,3.164449453353882 -79.17936706542969,3.164449453353882 C-79.17936706542969,3.164449453353882 -106.09217834472656,3.2966673374176025 -106.09217834472656,3.2966673374176025"/></g></g><g transform="matrix(5.275599956512451,0,0,5.275599956512451,583.4199829101562,190.02000427246094)" opacity="1" style="display: none;"><g opacity="1" transform="matrix(1,0,0,1,0,0)"><path stroke-linecap="round" stroke-linejoin="round" fill-opacity="0" class="primary" stroke="rgb(190,73,168)" stroke-opacity="1" stroke-width="3.75" d=" M-106.09445190429688,3.299708843231201 C-106.09445190429688,3.299708843231201 -83.16756439208984,-25.358779907226562 -83.16756439208984,-25.358779907226562"/></g></g><g transform="matrix(5.275599956512451,0,0,5.275599956512451,325.0899963378906,190.02000427246094)" opacity="1" style="display: none;"><g opacity="1" transform="matrix(1,0,0,1,0,0)"><path stroke-linecap="round" stroke-linejoin="round" fill-opacity="0" class="primary" stroke="rgb(190,73,168)" stroke-opacity="1" stroke-width="3.6750000000000003" d=" M-50.57250213623047,35.680999755859375 C-50.57250213623047,35.680999755859375 -50.6819953918457,35.680999755859375 -50.6819953918457,35.680999755859375 C-50.6819953918457,35.680999755859375 -50.680057525634766,3.5965747833251953 -50.680057525634766,3.5965747833251953"/></g></g><g transform="matrix(5.275599956512451,0,0,5.275599956512451,325.0899963378906,190.02000427246094)" opacity="1" style="display: none;"><g opacity="1" transform="matrix(1,0,0,1,0,0)"><path stroke-linecap="round" stroke-linejoin="round" fill-opacity="0" class="primary" stroke="rgb(190,73,168)" stroke-opacity="1" stroke-width="3.6750000000000003" d=" M-56.14303970336914,3.256171941757202 C-56.14303970336914,3.256171941757202 -45.786865234375,-25.55451202392578 -45.786865234375,-25.55451202392578 C-45.786865234375,-25.55451202392578 -56.27806854248047,3.256171941757202 -56.27806854248047,3.256171941757202"/></g></g><g transform="matrix(5.275599956512451,0,0,5.275599956512451,325.0899963378906,190.02000427246094)" opacity="1" style="display: block;"><g opacity="1" transform="matrix(1,0,0,1,0,0)"><path stroke-linecap="round" stroke-linejoin="round" fill-opacity="0" class="secondary" stroke="rgb(190,73,168)" stroke-opacity="1" stroke-width="3.6750000000000003" d=" M-9.925999641418457,-16.437000274658203 C-9.925999641418457,-16.437000274658203 -9.925999641418457,-22.229000091552734 -9.925999641418457,-22.229000091552734 C-9.925999641418457,-22.229000091552734 -0.9909999966621399,-22.229000091552734 -0.9909999966621399,-22.229000091552734 C-0.9909999966621399,-22.229000091552734 -0.9909999966621399,-8.105999946594238 -0.9909999966621399,-8.105999946594238 C-0.9909999966621399,-8.105999946594238 -1.055999994277954,-8.166999816894531 -1.055999994277954,-8.166999816894531"/></g><g opacity="1" transform="matrix(1,0,0,1,0,0)"><path stroke-linecap="round" stroke-linejoin="round" fill-opacity="0" class="secondary" stroke="rgb(190,73,168)" stroke-opacity="1" stroke-width="3.6750000000000003" d=" M-28.242000579833984,35.91699981689453 C-28.242000579833984,35.91699981689453 -28.242000579833984,9.715999603271484 -28.242000579833984,9.715999603271484 C-28.242000579833984,9.715999603271484 -12.387999534606934,9.715999603271484 -12.387999534606934,9.715999603271484 C-12.387999534606934,9.715999603271484 -12.387999534606934,35.91699981689453 -12.387999534606934,35.91699981689453"/></g><g opacity="1" transform="matrix(1,0,0,1,0,0)"><path stroke-linecap="round" stroke-linejoin="round" fill-opacity="0" class="secondary" stroke="rgb(190,73,168)" stroke-opacity="0" stroke-width="3.6750000000000003" d=" M-51.58100128173828,3.2839999198913574 C-51.58100128173828,3.2839999198913574 -20.315000534057617,-25.29400062561035 -20.315000534057617,-25.29400062561035 M-20.315000534057617,-25.29400062561035 C-20.315000534057617,-25.29400062561035 10.51099967956543,3.2839999198913574 10.51099967956543,3.2839999198913574 M-45.71200180053711,-1.2940000295639038 C-45.71200180053711,-1.2940000295639038 -45.71200180053711,-1.184000015258789 -45.71200180053711,-1.184000015258789 C-45.71200180053711,-1.184000015258789 -45.71200180053711,35.91699981689453 -45.71200180053711,35.91699981689453 C-45.71200180053711,35.91699981689453 4.758999824523926,35.91699981689453 4.758999824523926,35.91699981689453 C4.758999824523926,35.91699981689453 4.75,-1.9930000305175781 4.75,-1.9930000305175781"/><path stroke-linecap="round" stroke-linejoin="round" fill-opacity="0" class="primary" stroke="rgb(190,73,168)" stroke-opacity="1" stroke-width="3.6750000000000003" d=" M-51.58100128173828,3.2839999198913574 C-51.58100128173828,3.2839999198913574 -20.315000534057617,-25.29400062561035 -20.315000534057617,-25.29400062561035 M-20.315000534057617,-25.29400062561035 C-20.315000534057617,-25.29400062561035 10.51099967956543,3.2839999198913574 10.51099967956543,3.2839999198913574 M-45.71200180053711,-1.2940000295639038 C-45.71200180053711,-1.2940000295639038 -45.71200180053711,-1.184000015258789 -45.71200180053711,-1.184000015258789 C-45.71200180053711,-1.184000015258789 -45.71200180053711,35.91699981689453 -45.71200180053711,35.91699981689453 C-45.71200180053711,35.91699981689453 4.758999824523926,35.91699981689453 4.758999824523926,35.91699981689453 C4.758999824523926,35.91699981689453 4.75,-1.9930000305175781 4.75,-1.9930000305175781"/></g></g><g transform="matrix(5.275599956512451,0,0,5.275599956512451,325.0899963378906,190.02000427246094)" opacity="1" style="display: none;"><g opacity="1" transform="matrix(1,0,0,1,0,0)"><path stroke-linecap="round" stroke-linejoin="round" fill-opacity="0" class="primary" stroke="rgb(190,73,168)" stroke-opacity="1" stroke-width="3.6750000000000003" d=" M-51.58100128173828,3.2839999198913574 C-51.58100128173828,3.2839999198913574 -20.315000534057617,-25.29400062561035 -20.315000534057617,-25.29400062561035 M-20.315000534057617,-25.29400062561035 C-20.315000534057617,-25.29400062561035 10.51099967956543,3.2839999198913574 10.51099967956543,3.2839999198913574 M-45.71200180053711,-1.2940000295639038 C-45.71200180053711,-1.2940000295639038 -45.71200180053711,-1.184000015258789 -45.71200180053711,-1.184000015258789 C-45.71200180053711,-1.184000015258789 -45.71200180053711,35.91699981689453 -45.71200180053711,35.91699981689453 C-45.71200180053711,35.91699981689453 4.758999824523926,35.91699981689453 4.758999824523926,35.91699981689453 C4.758999824523926,35.91699981689453 4.75,-1.9930000305175781 4.75,-1.9930000305175781"/></g></g></g></g></g></svg>