<svg xmlns="http://www.w3.org/2000/svg" xmlns:xlink="http://www.w3.org/1999/xlink" viewBox="0 0 430 430" width="430" height="430" preserveAspectRatio="xMidYMid meet" style="width: 100%; height: 100%; transform: translate3d(0px, 0px, 0px); content-visibility: visible;"><defs><clipPath id="__lottie_element_3586"><rect width="430" height="430" x="0" y="0"/></clipPath><clipPath id="__lottie_element_3588"><path d="M0,0 L430,0 L430,430 L0,430z"/></clipPath><g id="__lottie_element_3601"><g transform="matrix(1,0,0,1,280,137.5)" opacity="1" style="display: block;"><g opacity="1" transform="matrix(1,0,0,1,0,0)"><path fill="rgb(255,255,255)" fill-opacity="1" d=" M-95,-47.5 C-95,-58.54600143432617 -86.0459976196289,-67.5 -75,-67.5 C-75,-67.5 75,-67.5 75,-67.5 C86.0459976196289,-67.5 95,-58.54600143432617 95,-47.5 C95,-47.5 95,7.5 95,7.5 C95,18.54599952697754 86.0459976196289,27.5 75,27.5 C75,27.5 30,27.5 30,27.5 C30,27.5 30,67.5 30,67.5 C30,67.5 -30,27.5 -30,27.5 C-30,27.5 -75,27.5 -75,27.5 C-86.0459976196289,27.5 -95,18.54599952697754 -95,7.5 C-95,7.5 -95,-47.5 -95,-47.5z"/></g></g></g><filter id="__lottie_element_3607" filterUnits="objectBoundingBox" x="0%" y="0%" width="100%" height="100%"><feComponentTransfer in="SourceGraphic"><feFuncA type="table" tableValues="1.0 0.0"/></feComponentTransfer></filter><mask id="__lottie_element_3601_2" mask-type="alpha"><g filter="url(#__lottie_element_3607)"><rect width="430" height="430" x="0" y="0" fill="#ffffff" opacity="0"/><use xmlns:ns1="http://www.w3.org/1999/xlink" ns1:href="#__lottie_element_3601"/></g></mask></defs><g clip-path="url(#__lottie_element_3586)"><g clip-path="url(#__lottie_element_3588)" transform="matrix(1,0,0,1,0,0)" opacity="1" style="display: block;"><g transform="matrix(1,0,0,1,130,302.5)" opacity="1" style="display: block;"><g opacity="1" transform="matrix(1,0,0,1,0,0)"><path stroke-linecap="butt" stroke-linejoin="round" fill-opacity="0" class="primary" stroke="rgb(190,73,168)" stroke-opacity="1" stroke-width="18" d=" M-20,12.5 C-44.85300064086914,12.5 -65,32.64699935913086 -65,57.5 C-65,57.5 -65,72.5 -65,72.5 C-65,72.5 65,72.5 65,72.5 C65,72.5 65,57.5 65,57.5 C65,32.64699935913086 44.85300064086914,12.5 20,12.5 C20,12.5 -20,12.5 -20,12.5z M30,-42.5 C30,-25.930999755859375 16.569000244140625,-12.5 0,-12.5 C-16.569000244140625,-12.5 -30,-25.930999755859375 -30,-42.5 C-30,-59.069000244140625 -16.569000244140625,-72.5 0,-72.5 C16.569000244140625,-72.5 30,-59.069000244140625 30,-42.5z"/></g></g><g transform="matrix(1,0,0,1,300,302.5)" opacity="1" style="display: block;"><g opacity="1" transform="matrix(1,0,0,1,0,0)"><path stroke-linecap="butt" stroke-linejoin="round" fill-opacity="0" class="primary" stroke="rgb(190,73,168)" stroke-opacity="1" stroke-width="18" d=" M-20,12.5 C-44.85300064086914,12.5 -65,32.64699935913086 -65,57.5 C-65,57.5 -65,72.5 -65,72.5 C-65,72.5 65,72.5 65,72.5 C65,72.5 65,57.5 65,57.5 C65,32.64699935913086 44.85300064086914,12.5 20,12.5 C20,12.5 -20,12.5 -20,12.5z M30,-42.5 C30,-25.930999755859375 16.569000244140625,-12.5 0,-12.5 C-16.569000244140625,-12.5 -30,-25.930999755859375 -30,-42.5 C-30,-59.069000244140625 -16.569000244140625,-72.5 0,-72.5 C16.569000244140625,-72.5 30,-59.069000244140625 30,-42.5z"/></g></g><g mask="url(#__lottie_element_3601_2)" style="display: block;"><g transform="matrix(1,0,0,1,150,115)" opacity="1"><g opacity="1" transform="matrix(1,0,0,1,0,0)"><path stroke-linecap="round" stroke-linejoin="round" fill-opacity="0" class="secondary" stroke="rgb(190,73,168)" stroke-opacity="1" stroke-width="18" d=" M-95,-50 C-95,-61.04600143432617 -86.0459976196289,-70 -75,-70 C-75,-70 75,-70 75,-70 C86.0459976196289,-70 95,-61.04600143432617 95,-50 C95,-50 95,10 95,10 C95,21.04599952697754 86.0459976196289,30 75,30 C75,30 30,30 30,30 C30,30 -30,70 -30,70 C-30,70 -30,30 -30,30 C-30,30 -75,30 -75,30 C-86.0459976196289,30 -95,21.04599952697754 -95,10 C-95,10 -95,-50 -95,-50z"/></g></g></g><g transform="matrix(1,0,0,1,280,137.5)" opacity="1" style="display: block;"><g opacity="1" transform="matrix(1,0,0,1,0,0)"><path stroke-linecap="round" stroke-linejoin="round" fill-opacity="0" class="secondary" stroke="rgb(190,73,168)" stroke-opacity="1" stroke-width="18" d=" M-95,-47.5 C-95,-58.54600143432617 -86.0459976196289,-67.5 -75,-67.5 C-75,-67.5 75,-67.5 75,-67.5 C86.0459976196289,-67.5 95,-58.54600143432617 95,-47.5 C95,-47.5 95,7.5 95,7.5 C95,18.54599952697754 86.0459976196289,27.5 75,27.5 C75,27.5 30,27.5 30,27.5 C30,27.5 30,67.5 30,67.5 C30,67.5 -30,27.5 -30,27.5 C-30,27.5 -75,27.5 -75,27.5 C-86.0459976196289,27.5 -95,18.54599952697754 -95,7.5 C-95,7.5 -95,-47.5 -95,-47.5z"/></g></g></g></g></svg>