<svg xmlns="http://www.w3.org/2000/svg" xmlns:xlink="http://www.w3.org/1999/xlink" viewBox="0 0 430 430" width="430" height="430" preserveAspectRatio="xMidYMid meet" style="width: 100%; height: 100%; transform: translate3d(0px, 0px, 0px); content-visibility: visible;"><defs><clipPath id="__lottie_element_14517"><rect width="430" height="430" x="0" y="0"/></clipPath><clipPath id="__lottie_element_14519"><path d="M0,0 L430,0 L430,430 L0,430z"/></clipPath></defs><g clip-path="url(#__lottie_element_14517)"><g clip-path="url(#__lottie_element_14519)" transform="matrix(1,0,0,1,0,0)" opacity="1" style="display: block;"><g transform="matrix(1,0,0,1,215,215)" opacity="1" style="display: block;"><g opacity="1" transform="matrix(1,0,0,1,0,0)"><path stroke-linecap="butt" stroke-linejoin="miter" fill-opacity="0" stroke-miterlimit="4" class="primary" stroke="rgb(190,73,168)" stroke-opacity="1" stroke-width="18" d=" M0,-167.5 C92.44325256347656,-167.5 167.5,-92.44325256347656 167.5,0 C167.5,92.44325256347656 92.44325256347656,167.5 0,167.5 C-92.44325256347656,167.5 -167.5,92.44325256347656 -167.5,0 C-167.5,-92.44325256347656 -92.44325256347656,-167.5 0,-167.5z"/></g></g><g transform="matrix(1,0,0,1,215.35400390625,215.31399536132812)" opacity="1" style="display: block;"><g opacity="1" transform="matrix(1,0,0,1,0,0)"><path stroke-linecap="round" stroke-linejoin="round" fill-opacity="0" class="secondary" stroke="rgb(190,73,168)" stroke-opacity="1" stroke-width="18" d="M0 0"/></g></g><g transform="matrix(1,0,0,1,212.14599609375,214.7310028076172)" opacity="1" style="display: block;"><g opacity="1" transform="matrix(1,0,0,1,0,0)"><path stroke-linecap="round" stroke-linejoin="round" fill-opacity="0" class="secondary" stroke="rgb(190,73,168)" stroke-opacity="1" stroke-width="18" d="M0 0"/></g></g><g transform="matrix(1,0,0,1,215.35400390625,215.31399536132812)" opacity="1" style="display: block;"><g opacity="1" transform="matrix(1,0,0,1,0,0)"><path stroke-linecap="round" stroke-linejoin="round" fill-opacity="0" class="secondary" stroke="rgb(190,73,168)" stroke-opacity="1" stroke-width="18" d=" M67.39199829101562,86.94300079345703 C48.74599838256836,101.4000015258789 25.329999923706055,110 -0.04100000113248825,110 C-60.8129997253418,110 -110.04100036621094,60.77199935913086 -110.04100036621094,0 C-110.04100036621094,-60.77199935913086 -60.8129997253418,-110 -0.04100000113248825,-110 C60.73099899291992,-110 110.04100036621094,-60.77299880981445 110.04100036621094,0.0820000022649765 C110.04100036621094,0.0820000022649765 110.04199981689453,45.68199920654297 42.34299850463867,45.68199920654297 M68.89399719238281,85.75700378417969 C68.39700317382812,86.15699768066406 67.89600372314453,86.552001953125 67.39199829101562,86.94300079345703"/></g></g><g transform="matrix(1,0,0,1,212.14599609375,214.7310028076172)" opacity="1" style="display: block;"><g opacity="1" transform="matrix(1,0,0,1,0,0)"><path stroke-linecap="round" stroke-linejoin="round" fill-opacity="0" class="secondary" stroke="rgb(190,73,168)" stroke-opacity="1" stroke-width="18" d=" M46.42399978637695,45.47100067138672 C46.42399978637695,38.20899963378906 46.42399978637695,-8.081000328063965 46.42399978637695,-8.081000328063965 C46.42399978637695,-29.273000717163086 29.273000717163086,-46.42399978637695 8.081000328063965,-46.42399978637695 C8.081000328063965,-46.42399978637695 -8.081000328063965,-46.42399978637695 -8.081000328063965,-46.42399978637695 C-29.273000717163086,-46.42399978637695 -46.42399978637695,-29.273000717163086 -46.42399978637695,-8.081000328063965 C-46.42399978637695,-8.081000328063965 -46.42399978637695,8.081000328063965 -46.42399978637695,8.081000328063965 C-46.42399978637695,29.273000717163086 -29.273000717163086,46.42399978637695 -8.081000328063965,46.42399978637695 C-8.081000328063965,46.42399978637695 -8.081000328063965,46.42399978637695 -8.081000328063965,46.42399978637695 C-8.081000328063965,46.42399978637695 46.42399978637695,46.42399978637695 46.42399978637695,46.42399978637695 C46.42399978637695,46.42399978637695 46.42399978637695,46.0890007019043 46.42399978637695,45.47100067138672"/></g></g></g></g></svg>