<svg xmlns="http://www.w3.org/2000/svg" xmlns:xlink="http://www.w3.org/1999/xlink" viewBox="0 0 430 430" width="430" height="430" preserveAspectRatio="xMidYMid meet" style="width: 100%; height: 100%; transform: translate3d(0px, 0px, 0px); content-visibility: visible;"><defs><clipPath id="__lottie_element_20686"><rect width="430" height="430" x="0" y="0"/></clipPath><clipPath id="__lottie_element_20688"><path d="M0,0 L430,0 L430,430 L0,430z"/></clipPath></defs><g clip-path="url(#__lottie_element_20686)"><g clip-path="url(#__lottie_element_20688)" transform="matrix(1,0,0,1,0,0)" opacity="1" style="display: block;"><g transform="matrix(1,0,0,1,220.6060028076172,209.39300537109375)" opacity="1" style="display: block;"><g opacity="1" transform="matrix(0.7071067690849304,0.7071067690849304,-0.7071067690849304,0.7071067690849304,113.39299774169922,-113.197998046875)"><path stroke-linecap="round" stroke-linejoin="round" fill-opacity="0" class="secondary" stroke="rgb(190,73,168)" stroke-opacity="1" stroke-width="18" d=" M-40,25 C-40,25 -40,-25 -40,-25 C-40,-25 -35.18600082397461,-25.341999053955078 2.236999988555908,-25.08799934387207 C36.76100158691406,-24.854000091552734 40,-25 40,-25 C40,-25 40,25 40,25"/></g><g opacity="1" transform="matrix(0.7071067690849304,0.7071067690849304,-0.7071067690849304,0.7071067690849304,0,0)"><path stroke-linecap="round" stroke-linejoin="round" fill-opacity="0" class="primary" stroke="rgb(190,73,168)" stroke-opacity="1" stroke-width="18" d=" M-39.90700149536133,135.68499755859375 C-39.90700149536133,135.68499755859375 0.004000000189989805,215.05999755859375 0.004000000189989805,215.05999755859375 C0.004000000189989805,215.05999755859375 39.82099914550781,135.68499755859375 39.82099914550781,135.68499755859375 M-40,135 C-40,135 -28.863000869750977,135.35299682617188 1.315999984741211,135.177001953125 C35.8380012512207,134.9759979248047 40,135 40,135 C40,135 40,-135 40,-135 C40,-135 37.60599899291992,-134.78500366210938 2.316999912261963,-135 C-34.69499969482422,-135.22500610351562 -40,-135 -40,-135 C-40,-135 -40,135 -40,135z"/></g></g><g transform="matrix(0.0036684321239590645,-0.9999932646751404,0.9999932646751404,0.0036684321239590645,220.31491088867188,208.8421630859375)" opacity="1" style="display: none;"><g opacity="1" transform="matrix(0.7071067690849304,0.7071067690849304,-0.7071067690849304,0.7071067690849304,113.39299774169922,-113.197998046875)"><path stroke-linecap="round" stroke-linejoin="round" fill-opacity="0" class="secondary" stroke="rgb(190,73,168)" stroke-opacity="1" stroke-width="18" d=" M-39.997413635253906,-23.49302101135254 C-39.997413635253906,-23.49302101135254 -35.207096099853516,-24.19672393798828 2.2369065284729004,-23.953271865844727 C36.773895263671875,-23.728900909423828 40.002586364746094,-23.49302101135254 40.002586364746094,-23.49302101135254"/></g></g><g transform="matrix(1,0,0,1,254.19400024414062,175.8050079345703)" opacity="1" style="display: block;"><g opacity="1" transform="matrix(0.7071067690849304,0.7071067690849304,-0.7071067690849304,0.7071067690849304,0,0)"><path stroke-linecap="round" stroke-linejoin="round" fill-opacity="0" class="secondary" stroke="rgb(190,73,168)" stroke-opacity="1" stroke-width="18" d=" M0,-47.5 C0,-47.5 0,47.5 0,47.5"/></g></g></g></g></svg>