<?xml version="1.0" encoding="UTF-8"?>
<!DOCTYPE svg PUBLIC "-//W3C//DTD SVG 1.1//EN" "http://www.w3.org/Graphics/SVG/1.1/DTD/svg11.dtd">
<svg xmlns="http://www.w3.org/2000/svg" version="1.1" width="800px" height="800px" style="shape-rendering:geometricPrecision; text-rendering:geometricPrecision; image-rendering:optimizeQuality; fill-rule:evenodd; clip-rule:evenodd" xmlns:xlink="http://www.w3.org/1999/xlink">
<g><path style="opacity:0.948" fill="#fefffe" d="M 393.5,357.5 C 412.007,355.84 430.007,358.007 447.5,364C 452.666,366.08 457.333,368.913 461.5,372.5C 462.583,373.365 462.749,374.365 462,375.5C 457.622,380.214 452.956,384.547 448,388.5C 428.952,379.288 409.119,377.122 388.5,382C 386.884,382.615 385.551,383.615 384.5,385C 387.862,386.915 391.529,387.915 395.5,388C 410.561,388.712 425.561,390.045 440.5,392C 457.463,395.292 464.63,405.459 462,422.5C 456.483,433.194 447.649,439.36 435.5,441C 410.712,446.443 387.046,443.443 364.5,432C 361.872,430.374 359.539,428.374 357.5,426C 362.348,420.985 367.348,416.152 372.5,411.5C 391.019,420.708 410.353,423.208 430.5,419C 437.373,416.165 437.04,414.165 429.5,413C 412.409,412.12 395.409,410.453 378.5,408C 361.748,404.268 355.248,394.102 359,377.5C 362.801,370.161 368.635,364.994 376.5,362C 382.253,360.314 387.919,358.814 393.5,357.5 Z"/></g>
<g><path style="opacity:0.95" fill="#fefffe" d="M 512.5,357.5 C 531.211,354.675 548.544,358.175 564.5,368C 579.776,384.123 582.609,402.29 573,422.5C 565.528,433.156 555.361,439.656 542.5,442C 523.786,445.756 506.119,443.089 489.5,434C 471.877,417.327 468.71,398.16 480,376.5C 488.511,366.162 499.345,359.829 512.5,357.5 Z M 519.5,379.5 C 531.088,378.042 541.255,381.042 550,388.5C 557.057,402.331 553.557,412.497 539.5,419C 528.223,422.268 517.223,421.268 506.5,416C 497.717,408.084 496.217,398.918 502,388.5C 507.029,383.737 512.862,380.737 519.5,379.5 Z"/></g>
<g><path style="opacity:0.963" fill="#fefffe" d="M 9.5,359.5 C 36.1687,359.333 62.8354,359.5 89.5,360C 107.05,365.92 114.216,378.087 111,396.5C 108.013,405.152 102.513,411.652 94.5,416C 98.9532,423.738 103.787,431.238 109,438.5C 109.483,439.448 109.649,440.448 109.5,441.5C 99.8276,441.666 90.1609,441.5 80.5,441C 75.5,433.333 70.5,425.667 65.5,418C 54.8385,417.5 44.1719,417.333 33.5,417.5C 33.5,425.5 33.5,433.5 33.5,441.5C 25.5,441.5 17.5,441.5 9.5,441.5C 9.5,414.167 9.5,386.833 9.5,359.5 Z M 33.5,381.5 C 50.5033,381.333 67.5033,381.5 84.5,382C 90.2524,385.181 90.9191,389.181 86.5,394C 85.1667,394.333 83.8333,394.667 82.5,395C 66.1701,395.5 49.8367,395.667 33.5,395.5C 33.5,390.833 33.5,386.167 33.5,381.5 Z"/></g>
<g><path style="opacity:0.955" fill="#fefffe" d="M 126.5,359.5 C 135.506,359.334 144.506,359.5 153.5,360C 168.99,376.456 184.823,392.623 201,408.5C 201.5,392.17 201.667,375.837 201.5,359.5C 209.833,359.5 218.167,359.5 226.5,359.5C 226.5,386.833 226.5,414.167 226.5,441.5C 217.494,441.666 208.494,441.5 199.5,441C 183.333,424.167 167.167,407.333 151,390.5C 150.5,407.497 150.333,424.497 150.5,441.5C 142.5,441.5 134.5,441.5 126.5,441.5C 126.5,414.167 126.5,386.833 126.5,359.5 Z"/></g>
<g><path style="opacity:0.959" fill="#fefffe" d="M 244.5,359.5 C 267.502,359.333 290.502,359.5 313.5,360C 335.121,364.618 346.121,377.951 346.5,400C 345.691,425.81 332.358,439.476 306.5,441C 285.836,441.5 265.169,441.667 244.5,441.5C 244.5,414.167 244.5,386.833 244.5,359.5 Z M 268.5,381.5 C 282.559,381.071 296.559,381.571 310.5,383C 322.075,389.469 324.909,398.635 319,410.5C 316.795,413.04 314.295,415.207 311.5,417C 297.239,418.449 282.906,418.949 268.5,418.5C 268.5,406.167 268.5,393.833 268.5,381.5 Z"/></g>
<g><path style="opacity:0.958" fill="#fefffe" d="M 592.5,359.5 C 622.833,359.5 653.167,359.5 683.5,359.5C 683.5,366.833 683.5,374.167 683.5,381.5C 661.167,381.5 638.833,381.5 616.5,381.5C 616.5,385.167 616.5,388.833 616.5,392.5C 629.167,392.5 641.833,392.5 654.5,392.5C 654.5,400.167 654.5,407.833 654.5,415.5C 641.833,415.5 629.167,415.5 616.5,415.5C 616.5,424.167 616.5,432.833 616.5,441.5C 608.5,441.5 600.5,441.5 592.5,441.5C 592.5,414.167 592.5,386.833 592.5,359.5 Z"/></g>
<g><path style="opacity:0.954" fill="#fefffe" d="M 689.5,359.5 C 722.833,359.5 756.167,359.5 789.5,359.5C 789.5,366.833 789.5,374.167 789.5,381.5C 776.833,381.5 764.167,381.5 751.5,381.5C 751.5,401.5 751.5,421.5 751.5,441.5C 743.167,441.5 734.833,441.5 726.5,441.5C 726.5,421.5 726.5,401.5 726.5,381.5C 714.167,381.5 701.833,381.5 689.5,381.5C 689.5,374.167 689.5,366.833 689.5,359.5 Z"/></g>
</svg>
