<svg xmlns="http://www.w3.org/2000/svg" xmlns:xlink="http://www.w3.org/1999/xlink" viewBox="0 0 430 430" width="430" height="430" preserveAspectRatio="xMidYMid meet" style="width: 100%; height: 100%; transform: translate3d(0px, 0px, 0px); content-visibility: visible;"><defs><clipPath id="__lottie_element_14753"><rect width="430" height="430" x="0" y="0"/></clipPath><clipPath id="__lottie_element_14755"><path d="M0,0 L430,0 L430,430 L0,430z"/></clipPath></defs><g clip-path="url(#__lottie_element_14753)"><g clip-path="url(#__lottie_element_14755)" transform="matrix(1,0,0,1,0,0)" opacity="1" style="display: block;"><g transform="matrix(1,-0.00000823963182483567,0.00000823963182483567,1,215.0009002685547,217.9990997314453)" opacity="1" style="display: block;"><g opacity="1" transform="matrix(0.7071067690849304,-0.7071067690849304,0.7071067690849304,0.7071067690849304,0,0)"><path stroke-linecap="butt" stroke-linejoin="round" fill-opacity="0" class="primary" stroke="rgb(190,73,168)" stroke-opacity="1" stroke-width="18" d=" M-77,-114.85399627685547 C-77,-85.29399871826172 -60.35599899291992,-59.62200164794922 -35.93299865722656,-46.707000732421875 C-35.93299865722656,-46.707000732421875 -35.93299865722656,148.07899475097656 -35.93299865722656,148.07899475097656 C-35.93299865722656,167.36500549316406 -20.30500030517578,183 -1.0269999504089355,183 C-1.0269999504089355,183 1.0269999504089355,183 1.0269999504089355,183 C20.30500030517578,183 35.93299865722656,167.36500549316406 35.93299865722656,148.07899475097656 C35.93299865722656,148.07899475097656 35.93299865722656,-46.707000732421875 35.93299865722656,-46.707000732421875 C60.35599899291992,-59.62200164794922 77,-85.29399871826172 77,-114.85399627685547 C77,-144.41400146484375 60.35599899291992,-170.0850067138672 35.93299865722656,-183 C35.93299865722656,-183 35.93299865722656,-126.1520004272461 35.93299865722656,-126.1520004272461 C35.93299865722656,-117.64299774169922 29.038000106811523,-110.74500274658203 20.533000946044922,-110.74500274658203 C20.533000946044922,-110.74500274658203 -20.533000946044922,-110.74500274658203 -20.533000946044922,-110.74500274658203 C-29.038000106811523,-110.74500274658203 -35.93299865722656,-117.64299774169922 -35.93299865722656,-126.1520004272461 C-35.93299865722656,-126.1520004272461 -35.93299865722656,-183 -35.93299865722656,-183 C-60.35599899291992,-170.0850067138672 -77,-144.41400146484375 -77,-114.85399627685547z"/></g></g><g transform="matrix(1,-0.00000823963182483567,0.00000823963182483567,1,314.3507080078125,315.9322814941406)" opacity="1" style="display: block;"><g opacity="1" transform="matrix(0.7071067690849304,-0.7071067690849304,0.7071067690849304,0.7071067690849304,0,0)"><path stroke-linecap="round" stroke-linejoin="miter" fill-opacity="0" stroke-miterlimit="4" class="secondary" stroke="rgb(190,73,168)" stroke-opacity="1" stroke-width="27" d=" M0,4.5 C0,4.5 0,-4.5 0,-4.5"/></g></g></g></g></svg>