<svg xmlns="http://www.w3.org/2000/svg" xmlns:xlink="http://www.w3.org/1999/xlink" viewBox="0 0 430 430" width="430" height="430" preserveAspectRatio="xMidYMid meet" style="width: 100%; height: 100%; transform: translate3d(0px, 0px, 0px); content-visibility: visible;"><defs><clipPath id="__lottie_element_2302"><rect width="430" height="430" x="0" y="0"/></clipPath><clipPath id="__lottie_element_2304"><path d="M0,0 L430,0 L430,430 L0,430z"/></clipPath><g id="__lottie_element_2311"><g transform="matrix(1,0.00017284901696257293,-0.00017284901696257293,1,-35.32304382324219,-35.1162109375)" opacity="1" style="display: block;"><g opacity="1" transform="matrix(1,0,0,1,310.8139953613281,269.2409973144531)"><path fill="rgb(255,255,255)" fill-opacity="1" d=" M58.9739990234375,-87.2750015258789 C58.9739990234375,-87.2750015258789 -82.552001953125,54.25199890136719 -82.552001953125,54.25199890136719 C-82.552001953125,54.25199890136719 -87.2699966430664,87.2750015258789 -87.2699966430664,87.2750015258789 C-87.2699966430664,87.2750015258789 -54.24700164794922,82.55699920654297 -54.24700164794922,82.55699920654297 C-54.24700164794922,82.55699920654297 87.2699966430664,-58.979000091552734 87.2699966430664,-58.979000091552734 C87.2699966430664,-58.979000091552734 58.9739990234375,-87.2750015258789 58.9739990234375,-87.2750015258789z"/></g></g></g><g id="__lottie_element_2314"><g transform="matrix(1,0.00017284901696257293,-0.00017284901696257293,1,-35.32304382324219,-35.1162109375)" opacity="1" style="display: block;"><g opacity="1" transform="matrix(1,0,0,1,310.8139953613281,269.2409973144531)"><path fill="rgb(255,255,255)" fill-opacity="1" d=" M58.9739990234375,-87.2750015258789 C58.9739990234375,-87.2750015258789 -82.552001953125,54.25199890136719 -82.552001953125,54.25199890136719 C-82.552001953125,54.25199890136719 -87.2699966430664,87.2750015258789 -87.2699966430664,87.2750015258789 C-87.2699966430664,87.2750015258789 -54.24700164794922,82.55699920654297 -54.24700164794922,82.55699920654297 C-54.24700164794922,82.55699920654297 87.2699966430664,-58.979000091552734 87.2699966430664,-58.979000091552734 C87.2699966430664,-58.979000091552734 58.9739990234375,-87.2750015258789 58.9739990234375,-87.2750015258789z"/></g></g></g><filter id="__lottie_element_2320" filterUnits="objectBoundingBox" x="0%" y="0%" width="100%" height="100%"><feComponentTransfer in="SourceGraphic"><feFuncA type="table" tableValues="1.0 0.0"/></feComponentTransfer></filter><mask id="__lottie_element_2311_2" mask-type="alpha"><g filter="url(#__lottie_element_2320)"><rect width="430" height="430" x="0" y="0" fill="#ffffff" opacity="0"/><use xmlns:ns1="http://www.w3.org/1999/xlink" ns1:href="#__lottie_element_2311"/></g></mask><filter id="__lottie_element_2368" filterUnits="objectBoundingBox" x="0%" y="0%" width="100%" height="100%"><feComponentTransfer in="SourceGraphic"><feFuncA type="table" tableValues="1.0 0.0"/></feComponentTransfer></filter><mask id="__lottie_element_2314_2" mask-type="alpha"><g filter="url(#__lottie_element_2368)"><rect width="430" height="430" x="0" y="0" fill="#ffffff" opacity="0"/><use xmlns:ns2="http://www.w3.org/1999/xlink" ns2:href="#__lottie_element_2314"/></g></mask></defs><g clip-path="url(#__lottie_element_2302)"><g clip-path="url(#__lottie_element_2304)" transform="matrix(1,0,0,1,0,0)" opacity="1" style="display: block;"><g mask="url(#__lottie_element_2311_2)" style="display: block;"><g transform="matrix(1,0,0,1,-34.985992431640625,-35)" opacity="1"><g opacity="1" transform="matrix(1,0,0,1,229.98599243164062,250)"><path stroke-linecap="round" stroke-linejoin="round" fill-opacity="0" class="primary" stroke="rgb(190,73,168)" stroke-opacity="1" stroke-width="18" d=" M113.41600036621094,-66.71199798583984 C113.41600036621094,-66.71199798583984 113.41600036621094,160.11900329589844 113.41600036621094,160.11900329589844 C113.41600036621094,160.11900329589844 -113.41600036621094,160.11900329589844 -113.41600036621094,160.11900329589844 C-113.41600036621094,160.11900329589844 -113.41600036621094,-160.11900329589844 -113.41600036621094,-160.11900329589844 C-113.41600036621094,-160.11900329589844 20.013999938964844,-160.11500549316406 20.013999938964844,-160.11500549316406"/></g><g opacity="1" transform="matrix(1,0,0,1,296.70098876953125,136.58599853515625)"><path stroke-linecap="round" stroke-linejoin="round" fill-opacity="0" class="primary" stroke="rgb(190,73,168)" stroke-opacity="1" stroke-width="18" d=" M-46.70100021362305,46.70100021362305 C-46.70100021362305,46.70100021362305 46.70100021362305,46.70100021362305 46.70100021362305,46.70100021362305 C46.70100021362305,46.70100021362305 -46.70100021362305,-46.70100021362305 -46.70100021362305,-46.70100021362305 C-46.70100021362305,-46.70100021362305 -46.70100021362305,46.70100021362305 -46.70100021362305,46.70100021362305z"/></g></g></g><g mask="url(#__lottie_element_2314_2)" style="display: block;"><g transform="matrix(1,0,0,1,204.01400756835938,222)" opacity="1"><g opacity="1" transform="matrix(1,0,0,1,0,0)"><path stroke-linecap="round" stroke-linejoin="round" fill-opacity="0" class="primary" stroke="rgb(190,73,168)" stroke-opacity="1" stroke-width="18" d="M0 0"/></g></g></g><g transform="matrix(1,0.00017284901696257293,-0.00017284901696257293,1,-35.32304382324219,-35.1162109375)" opacity="1" style="display: block;"><g opacity="1" transform="matrix(1,0,0,1,310.8139953613281,269.2409973144531)"><path stroke-linecap="round" stroke-linejoin="round" fill-opacity="0" class="secondary" stroke="rgb(190,73,168)" stroke-opacity="1" stroke-width="18" d=" M58.9739990234375,-87.2750015258789 C58.9739990234375,-87.2750015258789 -82.552001953125,54.25199890136719 -82.552001953125,54.25199890136719 C-82.552001953125,54.25199890136719 -87.2699966430664,87.2750015258789 -87.2699966430664,87.2750015258789 C-87.2699966430664,87.2750015258789 -54.24700164794922,82.55699920654297 -54.24700164794922,82.55699920654297 C-54.24700164794922,82.55699920654297 87.2699966430664,-58.979000091552734 87.2699966430664,-58.979000091552734 C87.2699966430664,-58.979000091552734 58.9739990234375,-87.2750015258789 58.9739990234375,-87.2750015258789z"/></g><g opacity="1" transform="matrix(1,0,0,1,392.1969909667969,187.86199951171875)"><path class="secondary" fill="rgb(190,73,168)" fill-opacity="1" d=" M1.1790000200271606,17.691999435424805 C1.1790000200271606,17.691999435424805 -17.691999435424805,-1.1790000200271606 -17.691999435424805,-1.1790000200271606 C-17.691999435424805,-1.1790000200271606 -2.8450000286102295,-16.024999618530273 -2.8450000286102295,-16.024999618530273 C-0.6230000257492065,-18.246999740600586 2.9800000190734863,-18.246999740600586 5.202000141143799,-16.024999618530273 C5.202000141143799,-16.024999618530273 16.024999618530273,-5.202000141143799 16.024999618530273,-5.202000141143799 C18.246999740600586,-2.9800000190734863 18.246999740600586,0.6230000257492065 16.024999618530273,2.8450000286102295 C16.024999618530273,2.8450000286102295 1.1790000200271606,17.691999435424805 1.1790000200271606,17.691999435424805z"/></g></g></g></g></svg>